<?xml version="1.0" encoding="UTF-8"?>
<svg id="Layer_2" data-name="Layer 2" xmlns="http://www.w3.org/2000/svg" viewBox="0 0 240.94 69.97">
  <defs>
    <style>
      .cls-1 {
        fill: #12110e;
      }
    </style>
  </defs>
  <g id="Layer_1-2" data-name="Layer 1">
    <g>
      <path class="cls-1" d="M26.9,26.74h-4.4V6.01l-6.85,20.73h-4.56L4.32,6.01V26.74H0V.04H6.24l7.25,21.26L20.69,0h6.21V26.74Z"/>
      <path class="cls-1" d="M240.94,26.74h-5.17l-2.48-6.8h-10.41l-2.44,6.8h-4.93L225.85,.04h4.85l10.25,26.7Zm-9.09-10.89l-3.72-10.57-3.77,10.57h7.49Z"/>
      <path class="cls-1" d="M17.98,69.65H0v-26.7H4.72v22.46h13.25v4.24Z"/>
      <path class="cls-1" d="M45.24,69.65h-5.17l-2.48-6.8h-10.41l-2.44,6.8h-4.93l10.33-26.7h4.85l10.25,26.7Zm-9.09-10.89l-3.72-10.57-3.77,10.57h7.49Z"/>
      <path class="cls-1" d="M69.73,69.65h-4.84l-11.09-19.18v19.18h-4.4v-26.7h4.8l11.13,19.02v-19.02h4.4v26.7Z"/>
      <path class="cls-1" d="M98.03,56.32c0,2.7-.11,4.74-.34,6.12s-.69,2.59-1.38,3.6c-.94,1.36-2.15,2.31-3.64,2.82-1.5,.52-3.54,.78-6.12,.78h-9.93v-26.7h9.89c2.59,0,4.63,.26,6.12,.78,1.49,.52,2.7,1.47,3.64,2.86,.69,1.02,1.16,2.22,1.4,3.62,.24,1.4,.36,3.44,.36,6.11Zm-4.84,3.75c.08-1,.12-2.25,.12-3.75s-.04-2.74-.12-3.74c-.08-1-.25-1.85-.52-2.54-.27-.7-.55-1.23-.84-1.6s-.76-.66-1.38-.86c-.63-.2-1.22-.32-1.79-.36-.56-.05-1.36-.07-2.4-.07h-5v18.26h5.04c1.07,0,1.88-.02,2.42-.06,.54-.04,1.13-.16,1.76-.34,.63-.19,1.08-.47,1.36-.84,.28-.38,.55-.91,.82-1.58,.27-.68,.44-1.52,.52-2.52Z"/>
      <g>
        <path class="cls-1" d="M136.1,69.65h-5.61l-4.48-6.8c-1.3-1.95-2.2-3.09-2.66-3.43-.47-.33-1.49-.5-3.06-.5h-1.32v10.72h-4.72v-26.7h9.37c1.04,0,1.88,.01,2.54,.04,.65,.03,1.41,.1,2.26,.2s1.54,.26,2.08,.46c.53,.2,1.09,.5,1.68,.88,.59,.38,1.04,.85,1.34,1.4s.57,1.22,.78,2.04,.32,1.75,.32,2.78c0,.91-.08,1.75-.26,2.52-.17,.78-.46,1.56-.88,2.35-.41,.79-1.04,1.44-1.86,1.96s-1.84,.85-3.04,.98l7.53,11.09Zm-6.12-18.69c0-.53-.05-1-.12-1.4s-.18-.74-.28-1.02-.3-.5-.58-.68-.52-.31-.72-.4c-.2-.09-.55-.16-1.06-.2-.51-.04-.93-.07-1.26-.08-.33-.01-.86-.02-1.58-.02h-5.4v7.53h5.92c1.12,0,1.92-.02,2.38-.06,.46-.04,.95-.17,1.46-.4s.84-.6,1-1.12c.16-.52,.24-1.24,.24-2.14Z"/>
        <path class="cls-1" d="M162.84,56.24c0,1.41-.02,2.56-.06,3.44-.04,.89-.14,1.86-.3,2.95s-.38,1.94-.68,2.58c-.3,.65-.7,1.3-1.22,1.98-.52,.68-1.17,1.21-1.96,1.56s-1.74,.65-2.86,.88-2.42,.34-3.88,.34c-2.11,0-3.88-.25-5.32-.76-1.45-.51-2.53-1.09-3.26-1.75-.74-.65-1.29-1.68-1.66-3.08s-.59-2.61-.66-3.62c-.07-1.01-.1-2.51-.1-4.48,0-1.41,.01-2.5,.04-3.24,.03-.74,.11-1.69,.24-2.84,.14-1.15,.33-2.01,.6-2.6s.67-1.25,1.21-1.98c.53-.74,1.19-1.28,1.96-1.64s1.74-.66,2.9-.92,2.5-.38,4.03-.38c2.1,0,3.88,.25,5.3,.74s2.52,1.06,3.26,1.7c.75,.64,1.31,1.65,1.69,3.04,.37,1.39,.59,2.58,.66,3.58,.07,1,.1,2.5,.1,4.5Zm-5.86,7.65c.76-1.18,1.14-3.71,1.14-7.61s-.37-6.42-1.12-7.58c-.74-1.16-2.47-1.74-5.16-1.74s-4.38,.58-5.13,1.74c-.74,1.16-1.12,3.7-1.12,7.62s.38,6.42,1.12,7.59c.75,1.16,2.46,1.74,5.13,1.74s4.38-.59,5.14-1.76Z"/>
        <path class="cls-1" d="M190.5,42.95l-10.05,26.7h-4.65l-9.97-26.7h5.05l7.32,20.74,7.32-20.74h4.96Z"/>
        <path class="cls-1" d="M212.84,69.65h-18.37v-26.7h18.37v4.2h-13.73v6.77h13.33v4.16h-13.33v7.32h13.73v4.24Z"/>
        <path class="cls-1" d="M240.94,69.65h-5.61l-4.48-6.8c-1.3-1.95-2.2-3.09-2.66-3.43-.47-.33-1.49-.5-3.06-.5h-1.32v10.72h-4.72v-26.7h9.37c1.04,0,1.88,.01,2.54,.04,.65,.03,1.41,.1,2.26,.2s1.54,.26,2.08,.46c.53,.2,1.09,.5,1.68,.88,.59,.38,1.04,.85,1.34,1.4s.57,1.22,.78,2.04c.22,.81,.32,1.75,.32,2.78,0,.91-.08,1.75-.26,2.52-.17,.78-.46,1.56-.88,2.35-.41,.79-1.04,1.44-1.86,1.96s-1.84,.85-3.04,.98l7.53,11.09Zm-6.12-18.69c0-.53-.05-1-.12-1.4s-.18-.74-.28-1.02-.3-.5-.58-.68-.52-.31-.72-.4c-.2-.09-.55-.16-1.06-.2-.51-.04-.93-.07-1.26-.08-.33-.01-.86-.02-1.58-.02h-5.4v7.53h5.92c1.12,0,1.92-.02,2.38-.06,.46-.04,.95-.17,1.46-.4s.84-.6,1-1.12c.16-.52,.24-1.24,.24-2.14Z"/>
      </g>
      <path class="cls-1" d="M119.77,23.9c0,1.9-.92,2.84-2.76,2.84s-2.76-.94-2.76-2.84,.93-2.76,2.76-2.76,2.76,.92,2.76,2.76Z"/>
    </g>
  </g>
</svg>